<svg height='24px' width='24px'  fill="#686868" xmlns:dc="http://purl.org/dc/elements/1.1/" xmlns:cc="http://creativecommons.org/ns#" xmlns:rdf="http://www.w3.org/1999/02/22-rdf-syntax-ns#" xmlns:svg="http://www.w3.org/2000/svg" xmlns="http://www.w3.org/2000/svg" xmlns:sodipodi="http://sodipodi.sourceforge.net/DTD/sodipodi-0.dtd" xmlns:inkscape="http://www.inkscape.org/namespaces/inkscape" viewBox="0 0 8.4666667 8.4666669" version="1.1" x="0px" y="0px"><svg:g><svg:path style="color:#000000;font-style:normal;font-variant:normal;font-weight:normal;font-stretch:normal;font-size:medium;line-height:normal;font-family:sans-serif;font-variant-ligatures:normal;font-variant-position:normal;font-variant-caps:normal;font-variant-numeric:normal;font-variant-alternates:normal;font-feature-settings:normal;text-indent:0;text-align:start;text-decoration:none;text-decoration-line:none;text-decoration-style:solid;text-decoration-color:#000000;letter-spacing:normal;word-spacing:normal;text-transform:none;writing-mode:lr-tb;direction:ltr;text-orientation:mixed;dominant-baseline:auto;baseline-shift:baseline;text-anchor:start;white-space:normal;shape-padding:0;clip-rule:nonzero;display:inline;overflow:visible;visibility:visible;opacity:1;isolation:auto;mix-blend-mode:normal;color-interpolation:sRGB;color-interpolation-filters:linearRGB;solid-color:#000000;solid-opacity:1;vector-effect:none;fill:#686868;fill-opacity:1;fill-rule:nonzero;stroke:none;stroke-width:0.52910382;stroke-linecap:round;stroke-linejoin:round;stroke-miterlimit:4;stroke-dasharray:none;stroke-dashoffset:0;stroke-opacity:1;paint-order:stroke fill markers;color-rendering:auto;image-rendering:auto;shape-rendering:auto;text-rendering:auto;enable-background:accumulate" d="m 4.2333268,5.2288223e-4 c -1.122514,0 -2.19936,0.44597959777 -2.993099,1.23971761777 -0.79373703,0.7937378 -1.2397160328,1.8705841 -1.2397160328,2.993099 0,1.1225149 0.4459790028,2.1993611 1.2397160328,2.993099 0.793739,0.7937381 1.870585,1.2397176 2.993099,1.2397176 a 0.26457835,0.26457835 0 0 0 5.29e-4,0 c 0.843994,-0.00172 1.666716,-0.2558643 2.363679,-0.7276042 l 1.491382,0.7022828 A 0.26457835,0.26457835 0 0 0 8.4408338,8.0889182 L 7.7385498,6.5985698 c 0.471837,-0.6971133 0.726001,-1.5205377 0.727605,-2.3647136 a 0.26457835,0.26457835 0 0 0 0,-5.291e-4 c 0,-1.1225149 -0.445979,-2.1993611 -1.239719,-2.993099 C 6.4326988,0.44649005 5.3558528,5.0970223e-4 4.2333368,5.1044223e-4 Z"></svg:path></svg:g></svg>
